<?xml version="1.0" encoding="UTF-8" standalone="no"?>
<!DOCTYPE svg PUBLIC "-//W3C//DTD SVG 1.1//EN"
 "http://www.w3.org/Graphics/SVG/1.1/DTD/svg11.dtd">
<!-- Generated by graphviz version 2.26.3 (20100126.1600)
 -->
<!-- Title: controllers_diagram Pages: 1 -->
<svg width="860pt" height="648pt"
 viewBox="0.00 0.00 860.00 648.15" xmlns="http://www.w3.org/2000/svg" xmlns:xlink="http://www.w3.org/1999/xlink">
<g id="graph1" class="graph" transform="scale(1 1) rotate(0) translate(4 644.149)">
<title>controllers_diagram</title>
<polygon fill="white" stroke="white" points="-4,5 -4,-644.149 857,-644.149 857,5 -4,5"/>
<!-- _diagram_info -->
<g id="node1" class="node"><title>_diagram_info</title>
<text text-anchor="start" x="609" y="-128.3" font-family="Times Roman,serif" font-size="13.00">Controllers diagram</text>
<text text-anchor="start" x="609" y="-111.3" font-family="Times Roman,serif" font-size="13.00">Date: Nov 20 2012 &#45; 14:53</text>
<text text-anchor="start" x="609" y="-94.3" font-family="Times Roman,serif" font-size="13.00">Migration version: 20121114190716</text>
<text text-anchor="start" x="609" y="-77.3" font-family="Times Roman,serif" font-size="13.00">Generated by RailRoady 1.1.0</text>
<text text-anchor="start" x="609" y="-60.3" font-family="Times Roman,serif" font-size="13.00">http://railroady.prestonlee.com</text>
</g>
<!-- HomeController -->
<g id="node2" class="node"><title>HomeController</title>
<polyline fill="none" stroke="black" points="37.8036,-58.7073 138.804,-58.7073 "/>
<path fill="none" stroke="black" d="M138.804,-58.7073C144.804,-58.7073 150.804,-64.7073 150.804,-70.7073"/>
<polyline fill="none" stroke="black" points="150.804,-70.7073 150.804,-166.707 "/>
<path fill="none" stroke="black" d="M150.804,-166.707C150.804,-172.707 144.804,-178.707 138.804,-178.707"/>
<polyline fill="none" stroke="black" points="138.804,-178.707 37.8036,-178.707 "/>
<path fill="none" stroke="black" d="M37.8036,-178.707C31.8036,-178.707 25.8036,-172.707 25.8036,-166.707"/>
<polyline fill="none" stroke="black" points="25.8036,-166.707 25.8036,-70.7073 "/>
<path fill="none" stroke="black" d="M25.8036,-70.7073C25.8036,-64.7073 31.8036,-58.7073 37.8036,-58.7073"/>
<text text-anchor="middle" x="88.3036" y="-162.107" font-family="Times Roman,serif" font-size="14.00">HomeController</text>
<polyline fill="none" stroke="black" points="25.8036,-152.707 150.804,-152.707 "/>
<text text-anchor="start" x="33.8036" y="-136.107" font-family="Times Roman,serif" font-size="14.00">index</text>
<text text-anchor="start" x="33.8036" y="-118.107" font-family="Times Roman,serif" font-size="14.00">prueba</text>
<polyline fill="none" stroke="black" points="25.8036,-108.707 150.804,-108.707 "/>
<polyline fill="none" stroke="black" points="25.8036,-84.7073 150.804,-84.7073 "/>
<text text-anchor="start" x="33.8036" y="-68.1073" font-family="Times Roman,serif" font-size="14.00">_layout</text>
</g>
<!-- ApplicationController -->
<g id="node3" class="node"><title>ApplicationController</title>
<polyline fill="none" stroke="black" points="148.812,-213.565 362.812,-213.565 "/>
<path fill="none" stroke="black" d="M362.812,-213.565C368.812,-213.565 374.812,-219.565 374.812,-225.565"/>
<polyline fill="none" stroke="black" points="374.812,-225.565 374.812,-393.565 "/>
<path fill="none" stroke="black" d="M374.812,-393.565C374.812,-399.565 368.812,-405.565 362.812,-405.565"/>
<polyline fill="none" stroke="black" points="362.812,-405.565 148.812,-405.565 "/>
<path fill="none" stroke="black" d="M148.812,-405.565C142.812,-405.565 136.812,-399.565 136.812,-393.565"/>
<polyline fill="none" stroke="black" points="136.812,-393.565 136.812,-225.565 "/>
<path fill="none" stroke="black" d="M136.812,-225.565C136.812,-219.565 142.812,-213.565 148.812,-213.565"/>
<text text-anchor="middle" x="255.812" y="-388.965" font-family="Times Roman,serif" font-size="14.00">ApplicationController</text>
<polyline fill="none" stroke="black" points="136.812,-379.565 374.812,-379.565 "/>
<text text-anchor="start" x="144.812" y="-362.965" font-family="Times Roman,serif" font-size="14.00">_one_time_conditions_valid_50?</text>
<text text-anchor="start" x="144.812" y="-344.965" font-family="Times Roman,serif" font-size="14.00">_one_time_conditions_valid_52?</text>
<text text-anchor="start" x="144.812" y="-326.965" font-family="Times Roman,serif" font-size="14.00">_one_time_conditions_valid_54?</text>
<text text-anchor="start" x="144.812" y="-308.965" font-family="Times Roman,serif" font-size="14.00">get_tweets</text>
<text text-anchor="start" x="144.812" y="-290.965" font-family="Times Roman,serif" font-size="14.00">mis_equipos</text>
<text text-anchor="start" x="144.812" y="-272.965" font-family="Times Roman,serif" font-size="14.00">not_found</text>
<polyline fill="none" stroke="black" points="136.812,-263.565 374.812,-263.565 "/>
<polyline fill="none" stroke="black" points="136.812,-239.565 374.812,-239.565 "/>
<text text-anchor="start" x="144.812" y="-222.965" font-family="Times Roman,serif" font-size="14.00">_layout</text>
</g>
<!-- ApplicationController&#45;&gt;HomeController -->
<g id="edge2" class="edge"><title>ApplicationController&#45;&gt;HomeController</title>
<path fill="none" stroke="black" d="M171.322,-213.298C160.996,-201.532 150.684,-189.783 141.016,-178.767"/>
</g>
<!-- LigasController -->
<g id="node4" class="node"><title>LigasController</title>
<polyline fill="none" stroke="black" points="391.874,-1.5 488.874,-1.5 "/>
<path fill="none" stroke="black" d="M488.874,-1.5C494.874,-1.5 500.874,-7.5 500.874,-13.5"/>
<polyline fill="none" stroke="black" points="500.874,-13.5 500.874,-145.5 "/>
<path fill="none" stroke="black" d="M500.874,-145.5C500.874,-151.5 494.874,-157.5 488.874,-157.5"/>
<polyline fill="none" stroke="black" points="488.874,-157.5 391.874,-157.5 "/>
<path fill="none" stroke="black" d="M391.874,-157.5C385.874,-157.5 379.874,-151.5 379.874,-145.5"/>
<polyline fill="none" stroke="black" points="379.874,-145.5 379.874,-13.5 "/>
<path fill="none" stroke="black" d="M379.874,-13.5C379.874,-7.5 385.874,-1.5 391.874,-1.5"/>
<text text-anchor="middle" x="440.374" y="-140.9" font-family="Times Roman,serif" font-size="14.00">LigasController</text>
<polyline fill="none" stroke="black" points="379.874,-131.5 500.874,-131.5 "/>
<text text-anchor="start" x="387.874" y="-114.9" font-family="Times Roman,serif" font-size="14.00">create</text>
<text text-anchor="start" x="387.874" y="-96.9" font-family="Times Roman,serif" font-size="14.00">index</text>
<text text-anchor="start" x="387.874" y="-78.9" font-family="Times Roman,serif" font-size="14.00">new</text>
<text text-anchor="start" x="387.874" y="-60.9" font-family="Times Roman,serif" font-size="14.00">show</text>
<polyline fill="none" stroke="black" points="379.874,-51.5 500.874,-51.5 "/>
<polyline fill="none" stroke="black" points="379.874,-27.5 500.874,-27.5 "/>
<text text-anchor="start" x="387.874" y="-10.9" font-family="Times Roman,serif" font-size="14.00">_layout</text>
</g>
<!-- ApplicationController&#45;&gt;LigasController -->
<g id="edge4" class="edge"><title>ApplicationController&#45;&gt;LigasController</title>
<path fill="none" stroke="black" d="M333.013,-213.33C348.62,-193.875 364.819,-173.683 379.758,-155.061"/>
</g>
<!-- SeleccionesController -->
<g id="node5" class="node"><title>SeleccionesController</title>
<polyline fill="none" stroke="black" points="319.492,-464.649 542.492,-464.649 "/>
<path fill="none" stroke="black" d="M542.492,-464.649C548.492,-464.649 554.492,-470.649 554.492,-476.649"/>
<polyline fill="none" stroke="black" points="554.492,-476.649 554.492,-626.649 "/>
<path fill="none" stroke="black" d="M554.492,-626.649C554.492,-632.649 548.492,-638.649 542.492,-638.649"/>
<polyline fill="none" stroke="black" points="542.492,-638.649 319.492,-638.649 "/>
<path fill="none" stroke="black" d="M319.492,-638.649C313.492,-638.649 307.492,-632.649 307.492,-626.649"/>
<polyline fill="none" stroke="black" points="307.492,-626.649 307.492,-476.649 "/>
<path fill="none" stroke="black" d="M307.492,-476.649C307.492,-470.649 313.492,-464.649 319.492,-464.649"/>
<text text-anchor="middle" x="430.992" y="-622.049" font-family="Times Roman,serif" font-size="14.00">SeleccionesController</text>
<polyline fill="none" stroke="black" points="307.492,-612.649 554.492,-612.649 "/>
<text text-anchor="start" x="315.492" y="-596.049" font-family="Times Roman,serif" font-size="14.00">_one_time_conditions_valid_125?</text>
<text text-anchor="start" x="315.492" y="-578.049" font-family="Times Roman,serif" font-size="14.00">change_seleccion</text>
<text text-anchor="start" x="315.492" y="-560.049" font-family="Times Roman,serif" font-size="14.00">create</text>
<text text-anchor="start" x="315.492" y="-542.049" font-family="Times Roman,serif" font-size="14.00">new</text>
<text text-anchor="start" x="315.492" y="-524.049" font-family="Times Roman,serif" font-size="14.00">plantilla</text>
<polyline fill="none" stroke="black" points="307.492,-514.649 554.492,-514.649 "/>
<polyline fill="none" stroke="black" points="307.492,-490.649 554.492,-490.649 "/>
<text text-anchor="start" x="315.492" y="-474.049" font-family="Times Roman,serif" font-size="14.00">_layout</text>
</g>
<!-- ApplicationController&#45;&gt;SeleccionesController -->
<g id="edge6" class="edge"><title>ApplicationController&#45;&gt;SeleccionesController</title>
<path fill="none" stroke="black" d="M325.3,-405.591C339.342,-424.996 354.033,-445.298 367.844,-464.383"/>
</g>
<!-- MercadoController -->
<g id="node6" class="node"><title>MercadoController</title>
<polyline fill="none" stroke="black" points="452.829,-263.392 571.829,-263.392 "/>
<path fill="none" stroke="black" d="M571.829,-263.392C577.829,-263.392 583.829,-269.392 583.829,-275.392"/>
<polyline fill="none" stroke="black" points="583.829,-275.392 583.829,-371.392 "/>
<path fill="none" stroke="black" d="M583.829,-371.392C583.829,-377.392 577.829,-383.392 571.829,-383.392"/>
<polyline fill="none" stroke="black" points="571.829,-383.392 452.829,-383.392 "/>
<path fill="none" stroke="black" d="M452.829,-383.392C446.829,-383.392 440.829,-377.392 440.829,-371.392"/>
<polyline fill="none" stroke="black" points="440.829,-371.392 440.829,-275.392 "/>
<path fill="none" stroke="black" d="M440.829,-275.392C440.829,-269.392 446.829,-263.392 452.829,-263.392"/>
<text text-anchor="middle" x="512.329" y="-366.792" font-family="Times Roman,serif" font-size="14.00">MercadoController</text>
<polyline fill="none" stroke="black" points="440.829,-357.392 583.829,-357.392 "/>
<text text-anchor="start" x="448.829" y="-340.792" font-family="Times Roman,serif" font-size="14.00">create_ofertas</text>
<text text-anchor="start" x="448.829" y="-322.792" font-family="Times Roman,serif" font-size="14.00">index</text>
<polyline fill="none" stroke="black" points="440.829,-313.392 583.829,-313.392 "/>
<polyline fill="none" stroke="black" points="440.829,-289.392 583.829,-289.392 "/>
<text text-anchor="start" x="448.829" y="-272.792" font-family="Times Roman,serif" font-size="14.00">_layout</text>
</g>
<!-- ApplicationController&#45;&gt;MercadoController -->
<g id="edge8" class="edge"><title>ApplicationController&#45;&gt;MercadoController</title>
<path fill="none" stroke="black" d="M375.059,-315.993C397.432,-317.199 420.172,-318.425 440.539,-319.522"/>
</g>
<!-- ErrorsController -->
<g id="node7" class="node"><title>ErrorsController</title>
<polyline fill="none" stroke="black" points="13,-415.334 158,-415.334 "/>
<path fill="none" stroke="black" d="M158,-415.334C164,-415.334 170,-421.334 170,-427.334"/>
<polyline fill="none" stroke="black" points="170,-427.334 170,-577.334 "/>
<path fill="none" stroke="black" d="M170,-577.334C170,-583.334 164,-589.334 158,-589.334"/>
<polyline fill="none" stroke="black" points="158,-589.334 13,-589.334 "/>
<path fill="none" stroke="black" d="M13,-589.334C7,-589.334 1,-583.334 1,-577.334"/>
<polyline fill="none" stroke="black" points="1,-577.334 1,-427.334 "/>
<path fill="none" stroke="black" d="M1,-427.334C1,-421.334 7,-415.334 13,-415.334"/>
<text text-anchor="middle" x="85.5" y="-572.734" font-family="Times Roman,serif" font-size="14.00">ErrorsController</text>
<polyline fill="none" stroke="black" points="1,-563.334 170,-563.334 "/>
<text text-anchor="start" x="9" y="-546.734" font-family="Times Roman,serif" font-size="14.00">cancan_access_denied</text>
<text text-anchor="start" x="9" y="-528.734" font-family="Times Roman,serif" font-size="14.00">internal_server_error</text>
<text text-anchor="start" x="9" y="-510.734" font-family="Times Roman,serif" font-size="14.00">not_found</text>
<text text-anchor="start" x="9" y="-492.734" font-family="Times Roman,serif" font-size="14.00">system_error</text>
<text text-anchor="start" x="9" y="-474.734" font-family="Times Roman,serif" font-size="14.00">unprocessable_entity</text>
<polyline fill="none" stroke="black" points="1,-465.334 170,-465.334 "/>
<polyline fill="none" stroke="black" points="1,-441.334 170,-441.334 "/>
<text text-anchor="start" x="9" y="-424.734" font-family="Times Roman,serif" font-size="14.00">_layout</text>
</g>
<!-- ApplicationController&#45;&gt;ErrorsController -->
<g id="edge10" class="edge"><title>ApplicationController&#45;&gt;ErrorsController</title>
<path fill="none" stroke="black" d="M170.906,-405.667C168.073,-408.874 165.239,-412.081 162.418,-415.274"/>
</g>
</g>
</svg>
