<?xml version="1.0" encoding="UTF-8" standalone="no"?>
<!DOCTYPE svg PUBLIC "-//W3C//DTD SVG 1.1//EN"
 "http://www.w3.org/Graphics/SVG/1.1/DTD/svg11.dtd">
<!-- Generated by graphviz version 2.26.3 (20100126.1600)
 -->
<!-- Title: models_diagram Pages: 1 -->
<svg width="663pt" height="1160pt"
 viewBox="0.00 0.00 663.00 1160.00" xmlns="http://www.w3.org/2000/svg" xmlns:xlink="http://www.w3.org/1999/xlink">
<g id="graph1" class="graph" transform="scale(1 1) rotate(0) translate(4 1156)">
<title>models_diagram</title>
<polygon fill="white" stroke="white" points="-4,5 -4,-1156 660,-1156 660,5 -4,5"/>
<!-- _diagram_info -->
<g id="node1" class="node"><title>_diagram_info</title>
<text text-anchor="start" x="141" y="-1038.8" font-family="Times Roman,serif" font-size="13.00">Models diagram</text>
<text text-anchor="start" x="141" y="-1021.8" font-family="Times Roman,serif" font-size="13.00">Date: Nov 20 2012 &#45; 14:53</text>
<text text-anchor="start" x="141" y="-1004.8" font-family="Times Roman,serif" font-size="13.00">Migration version: 20121114190716</text>
<text text-anchor="start" x="141" y="-987.8" font-family="Times Roman,serif" font-size="13.00">Generated by RailRoady 1.1.0</text>
<text text-anchor="start" x="141" y="-970.8" font-family="Times Roman,serif" font-size="13.00">http://railroady.prestonlee.com</text>
</g>
<!-- Seleccion -->
<g id="node2" class="node"><title>Seleccion</title>
<polyline fill="none" stroke="black" points="457.5,-649 598.5,-649 "/>
<path fill="none" stroke="black" d="M598.5,-649C604.5,-649 610.5,-655 610.5,-661"/>
<polyline fill="none" stroke="black" points="610.5,-661 610.5,-815 "/>
<path fill="none" stroke="black" d="M610.5,-815C610.5,-821 604.5,-827 598.5,-827"/>
<polyline fill="none" stroke="black" points="598.5,-827 457.5,-827 "/>
<path fill="none" stroke="black" d="M457.5,-827C451.5,-827 445.5,-821 445.5,-815"/>
<polyline fill="none" stroke="black" points="445.5,-815 445.5,-661 "/>
<path fill="none" stroke="black" d="M445.5,-661C445.5,-655 451.5,-649 457.5,-649"/>
<text text-anchor="middle" x="528" y="-810.4" font-family="Times Roman,serif" font-size="14.00">Seleccion</text>
<polyline fill="none" stroke="black" points="445.5,-801 610.5,-801 "/>
<text text-anchor="start" x="453.5" y="-784.4" font-family="Times Roman,serif" font-size="14.00">id :integer</text>
<text text-anchor="start" x="453.5" y="-766.4" font-family="Times Roman,serif" font-size="14.00">user_id :integer</text>
<text text-anchor="start" x="453.5" y="-748.4" font-family="Times Roman,serif" font-size="14.00">nombre :string</text>
<text text-anchor="start" x="453.5" y="-730.4" font-family="Times Roman,serif" font-size="14.00">escudo :string</text>
<text text-anchor="start" x="453.5" y="-712.4" font-family="Times Roman,serif" font-size="14.00">liga_id :integer</text>
<text text-anchor="start" x="453.5" y="-694.4" font-family="Times Roman,serif" font-size="14.00">created_at :datetime</text>
<text text-anchor="start" x="453.5" y="-676.4" font-family="Times Roman,serif" font-size="14.00">updated_at :datetime</text>
<text text-anchor="start" x="453.5" y="-658.4" font-family="Times Roman,serif" font-size="14.00">fecha_visto :date</text>
</g>
<!-- Jugador -->
<g id="node3" class="node"><title>Jugador</title>
<polyline fill="none" stroke="black" points="275.5,-379 416.5,-379 "/>
<path fill="none" stroke="black" d="M416.5,-379C422.5,-379 428.5,-385 428.5,-391"/>
<polyline fill="none" stroke="black" points="428.5,-391 428.5,-599 "/>
<path fill="none" stroke="black" d="M428.5,-599C428.5,-605 422.5,-611 416.5,-611"/>
<polyline fill="none" stroke="black" points="416.5,-611 275.5,-611 "/>
<path fill="none" stroke="black" d="M275.5,-611C269.5,-611 263.5,-605 263.5,-599"/>
<polyline fill="none" stroke="black" points="263.5,-599 263.5,-391 "/>
<path fill="none" stroke="black" d="M263.5,-391C263.5,-385 269.5,-379 275.5,-379"/>
<text text-anchor="middle" x="346" y="-594.4" font-family="Times Roman,serif" font-size="14.00">Jugador</text>
<polyline fill="none" stroke="black" points="263.5,-585 428.5,-585 "/>
<text text-anchor="start" x="271.5" y="-568.4" font-family="Times Roman,serif" font-size="14.00">id :integer</text>
<text text-anchor="start" x="271.5" y="-550.4" font-family="Times Roman,serif" font-size="14.00">equipo_id :integer</text>
<text text-anchor="start" x="271.5" y="-532.4" font-family="Times Roman,serif" font-size="14.00">nombre :string</text>
<text text-anchor="start" x="271.5" y="-514.4" font-family="Times Roman,serif" font-size="14.00">apellidos :string</text>
<text text-anchor="start" x="271.5" y="-496.4" font-family="Times Roman,serif" font-size="14.00">apodo :string</text>
<text text-anchor="start" x="271.5" y="-478.4" font-family="Times Roman,serif" font-size="14.00">foto :string</text>
<text text-anchor="start" x="271.5" y="-460.4" font-family="Times Roman,serif" font-size="14.00">precio :float</text>
<text text-anchor="start" x="271.5" y="-442.4" font-family="Times Roman,serif" font-size="14.00">dorsal :integer</text>
<text text-anchor="start" x="271.5" y="-424.4" font-family="Times Roman,serif" font-size="14.00">posicion :string</text>
<text text-anchor="start" x="271.5" y="-406.4" font-family="Times Roman,serif" font-size="14.00">created_at :datetime</text>
<text text-anchor="start" x="271.5" y="-388.4" font-family="Times Roman,serif" font-size="14.00">updated_at :datetime</text>
</g>
<!-- Seleccion&#45;&gt;Jugador -->
<g id="edge4" class="edge"><title>Seleccion&#45;&gt;Jugador</title>
<path fill="none" stroke="#87c3ed" d="M455.225,-640.834C448.433,-631.764 441.499,-622.506 434.583,-613.273"/>
<polygon fill="#87c3ed" stroke="#87c3ed" points="455.269,-640.892 457.662,-651.593 458.266,-644.894 461.263,-648.896 461.263,-648.896 461.263,-648.896 458.266,-644.894 464.865,-646.198 455.269,-640.892 455.269,-640.892"/>
<polygon fill="#87c3ed" stroke="#87c3ed" points="434.51,-613.175 432.117,-602.474 431.513,-609.173 428.515,-605.171 428.515,-605.171 428.515,-605.171 431.513,-609.173 424.913,-607.869 434.51,-613.175 434.51,-613.175"/>
</g>
<!-- PlantillaSeleccion -->
<g id="node4" class="node"><title>PlantillaSeleccion</title>
<polyline fill="none" stroke="black" points="457.5,-433 598.5,-433 "/>
<path fill="none" stroke="black" d="M598.5,-433C604.5,-433 610.5,-439 610.5,-445"/>
<polyline fill="none" stroke="black" points="610.5,-445 610.5,-545 "/>
<path fill="none" stroke="black" d="M610.5,-545C610.5,-551 604.5,-557 598.5,-557"/>
<polyline fill="none" stroke="black" points="598.5,-557 457.5,-557 "/>
<path fill="none" stroke="black" d="M457.5,-557C451.5,-557 445.5,-551 445.5,-545"/>
<polyline fill="none" stroke="black" points="445.5,-545 445.5,-445 "/>
<path fill="none" stroke="black" d="M445.5,-445C445.5,-439 451.5,-433 457.5,-433"/>
<text text-anchor="middle" x="528" y="-540.4" font-family="Times Roman,serif" font-size="14.00">PlantillaSeleccion</text>
<polyline fill="none" stroke="black" points="445.5,-531 610.5,-531 "/>
<text text-anchor="start" x="453.5" y="-514.4" font-family="Times Roman,serif" font-size="14.00">id :integer</text>
<text text-anchor="start" x="453.5" y="-496.4" font-family="Times Roman,serif" font-size="14.00">seleccion_id :integer</text>
<text text-anchor="start" x="453.5" y="-478.4" font-family="Times Roman,serif" font-size="14.00">jugador_id :integer</text>
<text text-anchor="start" x="453.5" y="-460.4" font-family="Times Roman,serif" font-size="14.00">created_at :datetime</text>
<text text-anchor="start" x="453.5" y="-442.4" font-family="Times Roman,serif" font-size="14.00">updated_at :datetime</text>
</g>
<!-- Seleccion&#45;&gt;PlantillaSeleccion -->
<g id="edge2" class="edge"><title>Seleccion&#45;&gt;PlantillaSeleccion</title>
<path fill="none" stroke="#5b1e3b" d="M528,-640.616C528,-616.089 528,-590.196 528,-567.155"/>
<ellipse fill="none" stroke="#5b1e3b" cx="528" cy="-644.896" rx="4" ry="4"/>
<polygon fill="#5b1e3b" stroke="#5b1e3b" points="528,-567.128 532.5,-557.127 528,-562.128 528,-557.128 528,-557.128 528,-557.128 528,-562.128 523.5,-557.128 528,-567.128 528,-567.128"/>
</g>
<!-- Oferta -->
<g id="node8" class="node"><title>Oferta</title>
<polyline fill="none" stroke="black" points="421.5,-1 562.5,-1 "/>
<path fill="none" stroke="black" d="M562.5,-1C568.5,-1 574.5,-7 574.5,-13"/>
<polyline fill="none" stroke="black" points="574.5,-13 574.5,-149 "/>
<path fill="none" stroke="black" d="M574.5,-149C574.5,-155 568.5,-161 562.5,-161"/>
<polyline fill="none" stroke="black" points="562.5,-161 421.5,-161 "/>
<path fill="none" stroke="black" d="M421.5,-161C415.5,-161 409.5,-155 409.5,-149"/>
<polyline fill="none" stroke="black" points="409.5,-149 409.5,-13 "/>
<path fill="none" stroke="black" d="M409.5,-13C409.5,-7 415.5,-1 421.5,-1"/>
<text text-anchor="middle" x="492" y="-144.4" font-family="Times Roman,serif" font-size="14.00">Oferta</text>
<polyline fill="none" stroke="black" points="409.5,-135 574.5,-135 "/>
<text text-anchor="start" x="417.5" y="-118.4" font-family="Times Roman,serif" font-size="14.00">id :integer</text>
<text text-anchor="start" x="417.5" y="-100.4" font-family="Times Roman,serif" font-size="14.00">seleccion_id :integer</text>
<text text-anchor="start" x="417.5" y="-82.4" font-family="Times Roman,serif" font-size="14.00">mercado_id :integer</text>
<text text-anchor="start" x="417.5" y="-64.4" font-family="Times Roman,serif" font-size="14.00">valor :float</text>
<text text-anchor="start" x="417.5" y="-46.4" font-family="Times Roman,serif" font-size="14.00">fecha :date</text>
<text text-anchor="start" x="417.5" y="-28.4" font-family="Times Roman,serif" font-size="14.00">created_at :datetime</text>
<text text-anchor="start" x="417.5" y="-10.4" font-family="Times Roman,serif" font-size="14.00">updated_at :datetime</text>
</g>
<!-- Seleccion&#45;&gt;Oferta -->
<g id="edge6" class="edge"><title>Seleccion&#45;&gt;Oferta</title>
<path fill="none" stroke="#5d83fe" d="M606.31,-641.5C611.388,-631.923 615.758,-622.025 619,-612 650.998,-513.045 639.869,-479.885 619,-378 604.046,-304.992 570.394,-227.75 541.487,-170.342"/>
<ellipse fill="none" stroke="#5d83fe" cx="604.232" cy="-645.258" rx="4.00002" ry="4.00002"/>
<polygon fill="#5d83fe" stroke="#5d83fe" points="541.424,-170.217 540.904,-159.263 539.158,-165.759 536.892,-161.302 536.892,-161.302 536.892,-161.302 539.158,-165.759 532.881,-163.341 541.424,-170.217 541.424,-170.217"/>
</g>
<!-- Mercado -->
<g id="node7" class="node"><title>Mercado</title>
<polyline fill="none" stroke="black" points="275.5,-199 416.5,-199 "/>
<path fill="none" stroke="black" d="M416.5,-199C422.5,-199 428.5,-205 428.5,-211"/>
<polyline fill="none" stroke="black" points="428.5,-211 428.5,-329 "/>
<path fill="none" stroke="black" d="M428.5,-329C428.5,-335 422.5,-341 416.5,-341"/>
<polyline fill="none" stroke="black" points="416.5,-341 275.5,-341 "/>
<path fill="none" stroke="black" d="M275.5,-341C269.5,-341 263.5,-335 263.5,-329"/>
<polyline fill="none" stroke="black" points="263.5,-329 263.5,-211 "/>
<path fill="none" stroke="black" d="M263.5,-211C263.5,-205 269.5,-199 275.5,-199"/>
<text text-anchor="middle" x="346" y="-324.4" font-family="Times Roman,serif" font-size="14.00">Mercado</text>
<polyline fill="none" stroke="black" points="263.5,-315 428.5,-315 "/>
<text text-anchor="start" x="271.5" y="-298.4" font-family="Times Roman,serif" font-size="14.00">id :integer</text>
<text text-anchor="start" x="271.5" y="-280.4" font-family="Times Roman,serif" font-size="14.00">jugador_id :integer</text>
<text text-anchor="start" x="271.5" y="-262.4" font-family="Times Roman,serif" font-size="14.00">liga_id :integer</text>
<text text-anchor="start" x="271.5" y="-244.4" font-family="Times Roman,serif" font-size="14.00">fecha_inclusion :date</text>
<text text-anchor="start" x="271.5" y="-226.4" font-family="Times Roman,serif" font-size="14.00">created_at :datetime</text>
<text text-anchor="start" x="271.5" y="-208.4" font-family="Times Roman,serif" font-size="14.00">updated_at :datetime</text>
</g>
<!-- Jugador&#45;&gt;Mercado -->
<g id="edge8" class="edge"><title>Jugador&#45;&gt;Mercado</title>
<path fill="none" stroke="#2dd3e8" d="M346,-370.73C346,-364.241 346,-357.805 346,-351.509"/>
<ellipse fill="none" stroke="#2dd3e8" cx="346" cy="-374.875" rx="4" ry="4"/>
<polygon fill="#2dd3e8" stroke="#2dd3e8" points="346,-351.061 350.5,-341.061 346,-346.061 346,-341.061 346,-341.061 346,-341.061 346,-346.061 341.5,-341.061 346,-351.061 346,-351.061"/>
</g>
<!-- Equipo -->
<g id="node5" class="node"><title>Equipo</title>
<polyline fill="none" stroke="black" points="275.5,-676 416.5,-676 "/>
<path fill="none" stroke="black" d="M416.5,-676C422.5,-676 428.5,-682 428.5,-688"/>
<polyline fill="none" stroke="black" points="428.5,-688 428.5,-788 "/>
<path fill="none" stroke="black" d="M428.5,-788C428.5,-794 422.5,-800 416.5,-800"/>
<polyline fill="none" stroke="black" points="416.5,-800 275.5,-800 "/>
<path fill="none" stroke="black" d="M275.5,-800C269.5,-800 263.5,-794 263.5,-788"/>
<polyline fill="none" stroke="black" points="263.5,-788 263.5,-688 "/>
<path fill="none" stroke="black" d="M263.5,-688C263.5,-682 269.5,-676 275.5,-676"/>
<text text-anchor="middle" x="346" y="-783.4" font-family="Times Roman,serif" font-size="14.00">Equipo</text>
<polyline fill="none" stroke="black" points="263.5,-774 428.5,-774 "/>
<text text-anchor="start" x="271.5" y="-757.4" font-family="Times Roman,serif" font-size="14.00">id :integer</text>
<text text-anchor="start" x="271.5" y="-739.4" font-family="Times Roman,serif" font-size="14.00">nombre :string</text>
<text text-anchor="start" x="271.5" y="-721.4" font-family="Times Roman,serif" font-size="14.00">logo :string</text>
<text text-anchor="start" x="271.5" y="-703.4" font-family="Times Roman,serif" font-size="14.00">created_at :datetime</text>
<text text-anchor="start" x="271.5" y="-685.4" font-family="Times Roman,serif" font-size="14.00">updated_at :datetime</text>
</g>
<!-- Equipo&#45;&gt;Jugador -->
<g id="edge10" class="edge"><title>Equipo&#45;&gt;Jugador</title>
<path fill="none" stroke="#9719cc" d="M346,-667.277C346,-652.895 346,-637.356 346,-621.702"/>
<ellipse fill="none" stroke="#9719cc" cx="346" cy="-671.737" rx="4" ry="4"/>
<polygon fill="#9719cc" stroke="#9719cc" points="346,-621.409 350.5,-611.409 346,-616.409 346,-611.409 346,-611.409 346,-611.409 346,-616.409 341.5,-611.41 346,-621.409 346,-621.409"/>
</g>
<!-- Liga -->
<g id="node6" class="node"><title>Liga</title>
<polyline fill="none" stroke="black" points="12,-379 234,-379 "/>
<path fill="none" stroke="black" d="M234,-379C240,-379 246,-385 246,-391"/>
<polyline fill="none" stroke="black" points="246,-391 246,-599 "/>
<path fill="none" stroke="black" d="M246,-599C246,-605 240,-611 234,-611"/>
<polyline fill="none" stroke="black" points="234,-611 12,-611 "/>
<path fill="none" stroke="black" d="M12,-611C6,-611 0,-605 0,-599"/>
<polyline fill="none" stroke="black" points="0,-599 0,-391 "/>
<path fill="none" stroke="black" d="M0,-391C0,-385 6,-379 12,-379"/>
<text text-anchor="middle" x="123" y="-594.4" font-family="Times Roman,serif" font-size="14.00">Liga</text>
<polyline fill="none" stroke="black" points="0,-585 246,-585 "/>
<text text-anchor="start" x="8" y="-568.4" font-family="Times Roman,serif" font-size="14.00">id :integer</text>
<text text-anchor="start" x="8" y="-550.4" font-family="Times Roman,serif" font-size="14.00">nombre :string</text>
<text text-anchor="start" x="8" y="-532.4" font-family="Times Roman,serif" font-size="14.00">creador :integer</text>
<text text-anchor="start" x="8" y="-514.4" font-family="Times Roman,serif" font-size="14.00">logo :string</text>
<text text-anchor="start" x="8" y="-496.4" font-family="Times Roman,serif" font-size="14.00">created_at :datetime</text>
<text text-anchor="start" x="8" y="-478.4" font-family="Times Roman,serif" font-size="14.00">updated_at :datetime</text>
<text text-anchor="start" x="8" y="-460.4" font-family="Times Roman,serif" font-size="14.00">privacidad :string</text>
<text text-anchor="start" x="8" y="-442.4" font-family="Times Roman,serif" font-size="14.00">password :string</text>
<text text-anchor="start" x="8" y="-424.4" font-family="Times Roman,serif" font-size="14.00">maximo_miembros :integer</text>
<text text-anchor="start" x="8" y="-406.4" font-family="Times Roman,serif" font-size="14.00">presupuesto_inicial :integer</text>
<text text-anchor="start" x="8" y="-388.4" font-family="Times Roman,serif" font-size="14.00">num_jugadores_mercado :integer</text>
</g>
<!-- Liga&#45;&gt;Mercado -->
<g id="edge12" class="edge"><title>Liga&#45;&gt;Mercado</title>
<path fill="none" stroke="#6889b6" d="M243.777,-373.139C252.088,-364.755 260.329,-356.44 268.314,-348.383"/>
<ellipse fill="none" stroke="#6889b6" cx="240.908" cy="-376.034" rx="4.00002" ry="4.00002"/>
<polygon fill="#6889b6" stroke="#6889b6" points="268.531,-348.164 278.767,-344.229 272.051,-344.612 275.571,-341.061 275.571,-341.061 275.571,-341.061 272.051,-344.612 272.374,-337.893 268.531,-348.164 268.531,-348.164"/>
</g>
<!-- Mercado&#45;&gt;Oferta -->
<g id="edge14" class="edge"><title>Mercado&#45;&gt;Oferta</title>
<path fill="none" stroke="#901fd0" d="M405.899,-192.459C411.729,-184.913 417.673,-177.218 423.577,-169.575"/>
<ellipse fill="none" stroke="#901fd0" cx="403.434" cy="-195.651" rx="4.00002" ry="4.00002"/>
<polygon fill="#901fd0" stroke="#901fd0" points="423.848,-169.225 433.522,-164.062 426.904,-165.268 429.961,-161.311 429.961,-161.311 429.961,-161.311 426.904,-165.268 426.4,-158.56 423.848,-169.225 423.848,-169.225"/>
</g>
<!-- User -->
<g id="node9" class="node"><title>User</title>
<polyline fill="none" stroke="black" points="413,-865 643,-865 "/>
<path fill="none" stroke="black" d="M643,-865C649,-865 655,-871 655,-877"/>
<polyline fill="none" stroke="black" points="655,-877 655,-1139 "/>
<path fill="none" stroke="black" d="M655,-1139C655,-1145 649,-1151 643,-1151"/>
<polyline fill="none" stroke="black" points="643,-1151 413,-1151 "/>
<path fill="none" stroke="black" d="M413,-1151C407,-1151 401,-1145 401,-1139"/>
<polyline fill="none" stroke="black" points="401,-1139 401,-877 "/>
<path fill="none" stroke="black" d="M401,-877C401,-871 407,-865 413,-865"/>
<text text-anchor="middle" x="528" y="-1134.4" font-family="Times Roman,serif" font-size="14.00">User</text>
<polyline fill="none" stroke="black" points="401,-1125 655,-1125 "/>
<text text-anchor="start" x="409" y="-1108.4" font-family="Times Roman,serif" font-size="14.00">id :integer</text>
<text text-anchor="start" x="409" y="-1090.4" font-family="Times Roman,serif" font-size="14.00">email :string</text>
<text text-anchor="start" x="409" y="-1072.4" font-family="Times Roman,serif" font-size="14.00">encrypted_password :string</text>
<text text-anchor="start" x="409" y="-1054.4" font-family="Times Roman,serif" font-size="14.00">reset_password_token :string</text>
<text text-anchor="start" x="409" y="-1036.4" font-family="Times Roman,serif" font-size="14.00">reset_password_sent_at :datetime</text>
<text text-anchor="start" x="409" y="-1018.4" font-family="Times Roman,serif" font-size="14.00">remember_created_at :datetime</text>
<text text-anchor="start" x="409" y="-1000.4" font-family="Times Roman,serif" font-size="14.00">sign_in_count :integer</text>
<text text-anchor="start" x="409" y="-982.4" font-family="Times Roman,serif" font-size="14.00">current_sign_in_at :datetime</text>
<text text-anchor="start" x="409" y="-964.4" font-family="Times Roman,serif" font-size="14.00">last_sign_in_at :datetime</text>
<text text-anchor="start" x="409" y="-946.4" font-family="Times Roman,serif" font-size="14.00">current_sign_in_ip :string</text>
<text text-anchor="start" x="409" y="-928.4" font-family="Times Roman,serif" font-size="14.00">last_sign_in_ip :string</text>
<text text-anchor="start" x="409" y="-910.4" font-family="Times Roman,serif" font-size="14.00">created_at :datetime</text>
<text text-anchor="start" x="409" y="-892.4" font-family="Times Roman,serif" font-size="14.00">updated_at :datetime</text>
<text text-anchor="start" x="409" y="-874.4" font-family="Times Roman,serif" font-size="14.00">username :string</text>
</g>
<!-- User&#45;&gt;Seleccion -->
<g id="edge16" class="edge"><title>User&#45;&gt;Seleccion</title>
<path fill="none" stroke="#2d47a8" d="M528,-856.65C528,-850.237 528,-843.874 528,-837.621"/>
<ellipse fill="none" stroke="#2d47a8" cx="528" cy="-860.699" rx="4" ry="4"/>
<polygon fill="#2d47a8" stroke="#2d47a8" points="528,-837.21 532.5,-827.21 528,-832.21 528,-827.21 528,-827.21 528,-827.21 528,-832.21 523.5,-827.21 528,-837.21 528,-837.21"/>
</g>
</g>
</svg>
