<?xml version="1.0" encoding="UTF-8" standalone="no"?>
<!DOCTYPE svg PUBLIC "-//W3C//DTD SVG 1.1//EN"
 "http://www.w3.org/Graphics/SVG/1.1/DTD/svg11.dtd">
<!-- Generated by graphviz version 2.26.3 (20100126.1600)
 -->
<!-- Title: models_diagram Pages: 1 -->
<svg width="421pt" height="398pt"
 viewBox="0.00 0.00 420.81 398.00" xmlns="http://www.w3.org/2000/svg" xmlns:xlink="http://www.w3.org/1999/xlink">
<g id="graph1" class="graph" transform="scale(1 1) rotate(0) translate(4 394)">
<title>models_diagram</title>
<polygon fill="white" stroke="white" points="-4,5 -4,-394 417.806,-394 417.806,5 -4,5"/>
<!-- _diagram_info -->
<g id="node1" class="node"><title>_diagram_info</title>
<text text-anchor="start" x="8" y="-373.8" font-family="Times Roman,serif" font-size="13.00">Models diagram</text>
<text text-anchor="start" x="8" y="-356.8" font-family="Times Roman,serif" font-size="13.00">Date: Nov 20 2012 &#45; 14:53</text>
<text text-anchor="start" x="8" y="-339.8" font-family="Times Roman,serif" font-size="13.00">Migration version: 20121114190716</text>
<text text-anchor="start" x="8" y="-322.8" font-family="Times Roman,serif" font-size="13.00">Generated by RailRoady 1.1.0</text>
<text text-anchor="start" x="8" y="-305.8" font-family="Times Roman,serif" font-size="13.00">http://railroady.prestonlee.com</text>
</g>
<!-- Seleccion -->
<g id="node2" class="node"><title>Seleccion</title>
<ellipse fill="none" stroke="black" cx="302" cy="-241" rx="56.0679" ry="18.3848"/>
<text text-anchor="middle" x="302" y="-237.4" font-family="Times Roman,serif" font-size="14.00">Seleccion</text>
</g>
<!-- Jugador -->
<g id="node3" class="node"><title>Jugador</title>
<ellipse fill="none" stroke="black" cx="139" cy="-167" rx="48.7904" ry="18.3848"/>
<text text-anchor="middle" x="139" y="-163.4" font-family="Times Roman,serif" font-size="14.00">Jugador</text>
</g>
<!-- Seleccion&#45;&gt;Jugador -->
<g id="edge4" class="edge"><title>Seleccion&#45;&gt;Jugador</title>
<path fill="none" stroke="#6d7c54" d="M259.892,-221.883C235.264,-210.702 204.317,-196.653 179.9,-185.568"/>
<polygon fill="#6d7c54" stroke="#6d7c54" points="259.909,-221.891 267.154,-230.123 264.462,-223.958 269.015,-226.025 269.015,-226.025 269.015,-226.025 264.462,-223.958 270.875,-221.927 259.909,-221.891 259.909,-221.891"/>
<polygon fill="#6d7c54" stroke="#6d7c54" points="179.657,-185.458 172.412,-177.227 175.105,-183.391 170.552,-181.324 170.552,-181.324 170.552,-181.324 175.105,-183.391 168.692,-185.422 179.657,-185.458 179.657,-185.458"/>
</g>
<!-- PlantillaSeleccion -->
<g id="node4" class="node"><title>PlantillaSeleccion</title>
<ellipse fill="none" stroke="black" cx="302" cy="-167" rx="96.1665" ry="18.3848"/>
<text text-anchor="middle" x="302" y="-163.4" font-family="Times Roman,serif" font-size="14.00">PlantillaSeleccion</text>
</g>
<!-- Seleccion&#45;&gt;PlantillaSeleccion -->
<g id="edge2" class="edge"><title>Seleccion&#45;&gt;PlantillaSeleccion</title>
<path fill="none" stroke="#4cb07b" d="M302,-214.309C302,-208.377 302,-202.061 302,-196.04"/>
<ellipse fill="none" stroke="#4cb07b" cx="302" cy="-218.327" rx="4" ry="4"/>
<polygon fill="#4cb07b" stroke="#4cb07b" points="302,-195.667 306.5,-185.667 302,-190.667 302,-185.667 302,-185.667 302,-185.667 302,-190.667 297.5,-185.667 302,-195.667 302,-195.667"/>
</g>
<!-- Oferta -->
<g id="node8" class="node"><title>Oferta</title>
<ellipse fill="none" stroke="black" cx="282" cy="-19" rx="43.1335" ry="18.3848"/>
<text text-anchor="middle" x="282" y="-15.4" font-family="Times Roman,serif" font-size="14.00">Oferta</text>
</g>
<!-- Seleccion&#45;&gt;Oferta -->
<g id="edge6" class="edge"><title>Seleccion&#45;&gt;Oferta</title>
<path fill="none" stroke="#28a6b5" d="M354.092,-226.625C374.265,-218.234 395.286,-205.359 407,-186 415.743,-171.55 413.34,-163.654 407,-148 388.327,-101.896 344.397,-63.1648 313.932,-40.5167"/>
<ellipse fill="none" stroke="#28a6b5" cx="350.149" cy="-228.167" rx="4.00001" ry="4.00001"/>
<polygon fill="#28a6b5" stroke="#28a6b5" points="313.822,-40.4366 308.372,-30.9207 309.776,-37.4996 305.729,-34.5625 305.729,-34.5625 305.729,-34.5625 309.776,-37.4996 303.086,-38.2043 313.822,-40.4366 313.822,-40.4366"/>
</g>
<!-- Mercado -->
<g id="node7" class="node"><title>Mercado</title>
<ellipse fill="none" stroke="black" cx="139" cy="-93" rx="51.8276" ry="18.3848"/>
<text text-anchor="middle" x="139" y="-89.4" font-family="Times Roman,serif" font-size="14.00">Mercado</text>
</g>
<!-- Jugador&#45;&gt;Mercado -->
<g id="edge8" class="edge"><title>Jugador&#45;&gt;Mercado</title>
<path fill="none" stroke="#7d822e" d="M139,-140.309C139,-134.377 139,-128.061 139,-122.04"/>
<ellipse fill="none" stroke="#7d822e" cx="139" cy="-144.327" rx="4" ry="4"/>
<polygon fill="#7d822e" stroke="#7d822e" points="139,-121.667 143.5,-111.667 139,-116.667 139,-111.667 139,-111.667 139,-111.667 139,-116.667 134.5,-111.667 139,-121.667 139,-121.667"/>
</g>
<!-- Equipo -->
<g id="node5" class="node"><title>Equipo</title>
<ellipse fill="none" stroke="black" cx="139" cy="-241" rx="44.0472" ry="18.3848"/>
<text text-anchor="middle" x="139" y="-237.4" font-family="Times Roman,serif" font-size="14.00">Equipo</text>
</g>
<!-- Equipo&#45;&gt;Jugador -->
<g id="edge10" class="edge"><title>Equipo&#45;&gt;Jugador</title>
<path fill="none" stroke="#70710d" d="M139,-214.309C139,-208.377 139,-202.061 139,-196.04"/>
<ellipse fill="none" stroke="#70710d" cx="139" cy="-218.327" rx="4" ry="4"/>
<polygon fill="#70710d" stroke="#70710d" points="139,-195.667 143.5,-185.667 139,-190.667 139,-185.667 139,-185.667 139,-185.667 139,-190.667 134.5,-185.667 139,-195.667 139,-195.667"/>
</g>
<!-- Liga -->
<g id="node6" class="node"><title>Liga</title>
<ellipse fill="none" stroke="black" cx="40" cy="-167" rx="31.8198" ry="18.3848"/>
<text text-anchor="middle" x="40" y="-163.4" font-family="Times Roman,serif" font-size="14.00">Liga</text>
</g>
<!-- Liga&#45;&gt;Mercado -->
<g id="edge12" class="edge"><title>Liga&#45;&gt;Mercado</title>
<path fill="none" stroke="#68a584" d="M66.4707,-147.214C79.4239,-137.532 95.0845,-125.826 108.534,-115.773"/>
<ellipse fill="none" stroke="#68a584" cx="63.238" cy="-149.63" rx="4.00002" ry="4.00002"/>
<polygon fill="#68a584" stroke="#68a584" points="108.568,-115.747 119.272,-113.364 112.573,-112.753 116.578,-109.76 116.578,-109.76 116.578,-109.76 112.573,-112.753 113.884,-106.156 108.568,-115.747 108.568,-115.747"/>
</g>
<!-- Mercado&#45;&gt;Oferta -->
<g id="edge14" class="edge"><title>Mercado&#45;&gt;Oferta</title>
<path fill="none" stroke="#e08964" d="M175.981,-73.8632C197.304,-62.8285 224.018,-49.0047 245.295,-37.9942"/>
<ellipse fill="none" stroke="#e08964" cx="172.182" cy="-75.8288" rx="4.00002" ry="4.00002"/>
<polygon fill="#e08964" stroke="#e08964" points="245.467,-37.905 256.417,-37.3056 249.908,-35.607 254.349,-33.3091 254.349,-33.3091 254.349,-33.3091 249.908,-35.607 252.281,-29.3125 245.467,-37.905 245.467,-37.905"/>
</g>
<!-- User -->
<g id="node9" class="node"><title>User</title>
<ellipse fill="none" stroke="black" cx="302" cy="-343" rx="33.9411" ry="18.3848"/>
<text text-anchor="middle" x="302" y="-339.4" font-family="Times Roman,serif" font-size="14.00">User</text>
</g>
<!-- User&#45;&gt;Seleccion -->
<g id="edge16" class="edge"><title>User&#45;&gt;Seleccion</title>
<path fill="none" stroke="#b3d7dd" d="M302,-316.015C302,-301.835 302,-284.445 302,-269.98"/>
<ellipse fill="none" stroke="#b3d7dd" cx="302" cy="-320.292" rx="4" ry="4"/>
<polygon fill="#b3d7dd" stroke="#b3d7dd" points="302,-269.59 306.5,-259.59 302,-264.59 302,-259.59 302,-259.59 302,-259.59 302,-264.59 297.5,-259.59 302,-269.59 302,-269.59"/>
</g>
</g>
</svg>
